# xmcd CD database file
#
# Track frame offsets:
#	150
#	13249
#	43135
#	71189
#	98254
#	122706
#	150863
#	170597
#	192489
#	215496
#	234563
#	253997
#	258522
#
# Disc length: 3773 seconds
#
# Revision: 0
# Processed by: cddbd v1.5.2PL0 Copyright (c) Steve Scherf et al.
# Submitted via: CDex 1.70beta2
#
DISCID=b80ebb0d
DTITLE=S.M.V. - Thunder
DYEAR=2008
DGENRE=Jazz
TTITLE0=Maestros de Las Frecuencias Bajas
TTITLE1=Thunder
TTITLE2=Hillbillies on a Quiet Afternoon
TTITLE3=Mongoose Walk
TTITLE4=Los Tres Hermanos
TTITLE5=Lopsy Lu - Silly Putty (Medley)
TTITLE6=Milano
TTITLE7=Classical Thump 
TTITLE8=Tutu
TTITLE9=Lil' Victa
TTITLE10=Pendulum
TTITLE11=Lemme Try Your Bass
TTITLE12=Grits
EXTD=YEAR: 2008
EXTT0=
EXTT1=
EXTT2=
EXTT3=
EXTT4=
EXTT5=
EXTT6=
EXTT7=
EXTT8=
EXTT9=
EXTT10=
EXTT11=
EXTT12=
PLAYORDER=
